<?xml version="1.0" standalone="no"?>
<!DOCTYPE svg PUBLIC "-//W3C//DTD SVG 20010904//EN"
 "http://www.w3.org/TR/2001/REC-SVG-20010904/DTD/svg10.dtd">
<svg version="1.0" xmlns="http://www.w3.org/2000/svg"
 width="640.000000pt" height="76.000000pt" viewBox="0 0 640.000000 76.000000"
 preserveAspectRatio="xMidYMid meet">
<metadata>
Created by potrace 1.16, written by Peter Selinger 2001-2019
</metadata>
<g transform="translate(0.000000,76.000000) scale(0.100000,-0.100000)"
fill="#000000" stroke="none">
<path d="M1097 727 c-52 -29 -57 -35 -51 -57 18 -72 25 -142 31 -313 l6 -187
715 2 716 3 33 44 c29 37 34 51 31 90 -2 38 1 49 20 64 12 10 22 26 22 36 0
17 -55 111 -65 111 -14 0 -135 -60 -135 -67 0 -4 9 -32 20 -61 11 -29 20 -59
20 -67 0 -13 -77 -15 -619 -15 l-619 0 -7 148 c-7 147 -20 276 -31 293 -9 15
-26 10 -87 -24z"/>
<path d="M2076 611 l-48 -49 47 -43 c26 -24 52 -46 57 -48 11 -4 98 78 98 93
0 14 -81 96 -95 96 -6 0 -32 -22 -59 -49z"/>
<path d="M3810 380 l0 -280 80 0 81 0 -3 161 -3 160 23 -28 c12 -15 68 -87
125 -160 l102 -132 83 0 82 -1 0 190 0 190 -32 0 -32 0 42 43 42 43 -48 47
c-26 26 -52 47 -57 47 -5 0 -31 -21 -57 -47 l-48 -47 42 -43 42 -43 -27 0
c-27 0 -27 0 -27 -72 l0 -71 -127 161 -128 162 -77 0 -78 0 0 -280z"/>
<path d="M4652 387 c-56 -149 -102 -276 -102 -280 0 -4 37 -7 82 -5 l81 3 16
43 15 43 100 -3 99 -3 15 -43 14 -42 84 0 c46 0 84 2 84 4 0 2 -39 104 -86
227 -47 123 -95 248 -106 277 l-19 52 -87 0 -87 0 -103 -273z"/>
<path d="M5367 402 c-54 -142 -100 -268 -104 -280 -5 -22 -4 -23 77 -20 l83 3
15 43 14 43 101 -3 100 -3 15 -43 14 -42 85 0 c77 0 84 2 78 18 -11 29 -166
434 -187 490 l-19 52 -87 0 -87 0 -98 -258z"/>
<path d="M6108 640 c-46 -25 -77 -75 -85 -138 -9 -83 31 -135 134 -172 71 -25
86 -39 81 -72 -3 -21 -8 -23 -58 -23 -41 0 -63 6 -87 23 l-32 23 -31 -60 c-16
-33 -30 -62 -30 -64 0 -3 27 -17 61 -32 54 -24 71 -27 143 -23 68 2 89 7 119
28 51 35 77 86 77 151 0 94 -20 114 -183 183 -30 13 -38 21 -35 38 5 37 48 45
99 20 24 -12 44 -20 45 -19 14 16 53 110 49 116 -11 19 -102 41 -164 41 -45
-1 -78 -7 -103 -20z"/>
<path d="M3165 430 l-50 -50 50 -50 50 -49 51 49 52 49 -51 51 c-27 27 -51 50
-51 50 -1 0 -24 -23 -51 -50z"/>
<path d="M692 450 c-35 -10 -68 -22 -73 -27 -5 -5 -6 -28 0 -56 9 -52 5 -57
-59 -57 l-38 0 -15 66 c-9 36 -18 68 -20 71 -5 4 -147 -64 -147 -70 0 -2 11
-35 24 -73 13 -38 27 -85 31 -105 6 -31 4 -36 -20 -47 -40 -18 -164 -15 -205
6 -43 21 -47 44 -24 118 9 30 14 57 11 61 -4 3 -32 -3 -64 -13 -54 -18 -59
-22 -75 -64 -9 -25 -17 -69 -17 -97 -1 -47 3 -57 35 -92 49 -55 105 -75 196
-69 108 7 225 73 279 157 13 21 18 22 38 11 33 -17 89 -6 122 26 l27 26 40
-31 c21 -18 54 -34 73 -37 101 -15 195 135 173 275 -8 48 -25 52 -96 24 -59
-22 -60 -24 -43 -73 19 -54 14 -70 -23 -70 -41 0 -55 21 -61 94 l-6 63 -63
-17z"/>
</g>
</svg>
